PathFileType	4	(X/Y/Z)	CPRIT_Patient3_L_KneeIso_Processed.TRC
DataRate	CameraRate	NumFrames	NumMarkers	Units	OrigDataRate	OrigDataStartFrame	OrigNumFrames
150.195058517555	150.195058517555	6	36	m	150.195058517555	482	       771
Frame#	Time	R.Heel			R.Midfoot.Superior			R.Midfoot.Lateral			R.Toe			L.Heel			L.Midfoot.Superior			L.Midfoot.Lateral			L.Toe			R.Shank.Superior			R.Shank.Inferior			R.Shank.Lateral			R.Shank.Posterior			L.Shank.Superior			L.Shank.Inferior			L.Shank.Posterior			L.Shank.Lateral			R.Patella			L.Patella			R.Thigh.Superior			R.Thigh.Lateral			R.Thigh.Inferior			L.Thigh.Superior			L.Thigh.Inferior			L.Thigh.Lateral			L.Asis			R.Asis			R.Shoulder			L.Shoulder			C7			J.Notch			Sternum			Thoracic			L.Elbow			L.Wrist			R.Elbow			R.Wrist			
		X1	Y1	Z1	X2	Y2	Z2	X3	Y3	Z3	X4	Y4	Z4	X5	Y5	Z5	X6	Y6	Z6	X7	Y7	Z7	X8	Y8	Z8	X9	Y9	Z9	X10	Y10	Z10	X11	Y11	Z11	X12	Y12	Z12	X13	Y13	Z13	X14	Y14	Z14	X15	Y15	Z15	X16	Y16	Z16	X17	Y17	Z17	X18	Y18	Z18	X19	Y19	Z19	X20	Y20	Z20	X21	Y21	Z21	X22	Y22	Z22	X23	Y23	Z23	X24	Y24	Z24	X25	Y25	Z25	X26	Y26	Z26	X27	Y27	Z27	X28	Y28	Z28	X29	Y29	Z29	X30	Y30	Z30	X31	Y31	Z31	X32	Y32	Z32	X33	Y33	Z33	X34	Y34	Z34	X35	Y35	Z35	X36	Y36	Z36	

482	3.202502164502	0.480680538658	0.049395191698	0.082908293276	0.646778184460	0.097646625794	0.116191409605	0.549793441661	0.038048166801	0.147878513553	0.762024073116	0.054575611868	0.140196239993	0.419078799815	0.154005031443	-0.064866223674	0.595224193063	0.143485696529	-0.096783610542	0.483330516451	0.117056340777	-0.128133365148	0.688217642485	0.063650098459	-0.112626380241	0.610162839945	0.357168561937	0.148608508212	0.599876367295	0.237655668091	0.138038014002	0.530625252178	0.289978460234	0.194459735103	0.471690936887	0.357203023380	0.139945938380	0.697302653651	0.387256467199	-0.092899294983	0.620717386888	0.281918356973	-0.089526955603	0.562638673644	0.431916283916	-0.094848116285	0.594998177599	0.348933896160	-0.145364563963	0.639777744407	0.465825823595	0.135899173039	0.775634459994	0.492784435390	-0.084126196249	0.694620335577	0.775808022760	0.167151534302	0.612510287369	0.706276739524	0.222438707806	0.681033548554	0.617561982630	0.134951688046	0.705555846301	0.819472768404	-0.096168752982	0.757543817152	0.665787868258	-0.085464709020	0.640911915387	0.724491134552	-0.146037850283	0.655026766287	0.956016430185	-0.074373204803	0.686891586084	0.937685336437	0.157850282855	0.573885361126	1.444609928626	0.230334198868	0.599952463604	1.435541539594	-0.098541010263	0.544236526770	1.479494999793	0.082620677960	0.665653439353	1.381973253555	0.070463520502	0.723860292288	1.203281825294	0.057159045942	0.462843412078	1.323032683969	0.072728308663	0.547694096967	1.173458908234	-0.275612895851	0.614864336979	0.988416741082	-0.432514284099	0.551268877294	1.139795506241	0.387817078425	0.762402728819	0.990493174200	0.414361099916	
483	3.209160173160	0.480680813296	0.049395717994	0.082907383663	0.646791102386	0.097654575456	0.116189798049	0.549794246748	0.038049275201	0.147877207796	0.762023533272	0.054577537919	0.140196647018	0.415165946225	0.158064484975	-0.064666180264	0.591099952446	0.145282361664	-0.097029662348	0.478759272813	0.120315985872	-0.128157350065	0.683002281996	0.064252180092	-0.113147139925	0.610192403088	0.357164941974	0.148601813265	0.599885852289	0.237652598293	0.138032156530	0.530656137244	0.289983868181	0.194454123779	0.471717695423	0.357218068110	0.139949050328	0.696371181927	0.387659798651	-0.093158094667	0.618411793267	0.283333193484	-0.089664774110	0.562320012827	0.433908937921	-0.094913559408	0.593422001805	0.350636773492	-0.145478737684	0.639813395433	0.465825946069	0.135888322535	0.775937119657	0.492650279494	-0.084565811750	0.694651493408	0.775792157465	0.167173610261	0.612550927554	0.706271248631	0.222444263250	0.681058029066	0.617568710372	0.134953082127	0.705613622435	0.819582625275	-0.096236077235	0.757852310316	0.665991071068	-0.085728576308	0.641081110241	0.724596617777	-0.146168558212	0.655074932672	0.956030541201	-0.074349420746	0.686936933020	0.937676222793	0.157868186478	0.573946242469	1.444617435227	0.230351580004	0.600006407761	1.435533873487	-0.098525551973	0.544300195129	1.479502589885	0.082632704698	0.665715720201	1.381963502986	0.070482872979	0.723892008017	1.203263062176	0.057183040691	0.462900949809	1.323046985274	0.072752582152	0.547723762527	1.173459962402	-0.275599046023	0.614870020130	0.988418555665	-0.432512578014	0.551282258916	1.139806747424	0.387832565077	0.762407328880	0.990493341345	0.414359803811	
484	3.215818181818	0.480681046641	0.049396277454	0.082906447245	0.646805759748	0.097663392081	0.116188026272	0.549795025826	0.038050426770	0.147875871942	0.762023195954	0.054578949499	0.140196377549	0.411307438542	0.162175082866	-0.064454465016	0.587000627511	0.147135118781	-0.097268486442	0.474239275982	0.123638100386	-0.128170586009	0.677799297603	0.064927552644	-0.113653446929	0.610220142478	0.357161495869	0.148594197796	0.599894501753	0.237650073435	0.138026031072	0.530682696205	0.289989265653	0.194449979373	0.471743048272	0.357231428924	0.139951595025	0.695438766085	0.388080771267	-0.093422777923	0.616123504963	0.284782959347	-0.089795257490	0.562007595213	0.435920047338	-0.094958292057	0.591864099385	0.352363707830	-0.145588930819	0.639846994664	0.465827252554	0.135874242236	0.776234996142	0.492525658006	-0.085003226675	0.694680072894	0.775776897892	0.167194017861	0.612588712745	0.706265840687	0.222449103285	0.681081401353	0.617575151590	0.134954724148	0.705665861506	0.819691570838	-0.096306313086	0.758154184414	0.666194603756	-0.085996175583	0.641243216551	0.724704160126	-0.146303830740	0.655120028928	0.956044348745	-0.074327647031	0.686979830765	0.937667249610	0.157884738986	0.574007424992	1.444624711590	0.230369587105	0.600061340863	1.435526610293	-0.098510298180	0.544363606568	1.479510396173	0.082646534293	0.665777574902	1.381953646294	0.070502741075	0.723922577321	1.203243994803	0.057206656433	0.462957879253	1.323061999491	0.072777611441	0.547753978365	1.173460946691	-0.275584705688	0.614875665374	0.988420307730	-0.432510649533	0.551296049126	1.139818189060	0.387849525473	0.762412201382	0.990493678591	0.414358669691	
485	3.222476190476	0.480681250840	0.049396882796	0.082905496564	0.646822218028	0.097673100437	0.116186144000	0.549795780580	0.038051624533	0.147874529444	0.762023051772	0.054579890331	0.140195491823	0.407504685202	0.166332197946	-0.064232256096	0.582927928049	0.149041260428	-0.097498718113	0.469773485591	0.127018422247	-0.128172899974	0.672611958800	0.065674266611	-0.114142649575	0.610246183044	0.357158204811	0.148585639579	0.599902520265	0.237648115878	0.138019602993	0.530704955953	0.289994670699	0.194447350207	0.471767168293	0.357242911191	0.139953647283	0.694504628962	0.388518123929	-0.093693366947	0.613853109233	0.286265191917	-0.089918076083	0.561698778398	0.437948556097	-0.094979741841	0.590324894485	0.354112466908	-0.145694819397	0.639878720508	0.465829724311	0.135856840594	0.776527368268	0.492409800396	-0.085436781478	0.694706361876	0.775762447208	0.167212730552	0.612623778563	0.706260531811	0.222453219845	0.681103962328	0.617581203972	0.134956512915	0.705712788260	0.819799180376	-0.096378539538	0.758448989516	0.666397704080	-0.086266174367	0.641398566060	0.724813484940	-0.146443126954	0.655162248955	0.956057825161	-0.074307782625	0.687020259140	0.937658495313	0.157900132628	0.574068766837	1.444631770075	0.230388191894	0.600116924654	1.435519772592	-0.098495285747	0.544426459831	1.479518375317	0.082662189626	0.665838791897	1.381943731523	0.070523006024	0.723951947741	1.203224744486	0.057229868415	0.463014027439	1.323077630028	0.072803304327	0.547784445456	1.173461854155	-0.275569964269	0.614881202878	0.988421971857	-0.432508523503	0.551310236840	1.139829871478	0.387867939464	0.762417309528	0.990494193072	0.414357732576	
486	3.229134199134	0.480681439323	0.049397542896	0.082904545487	0.646840520248	0.097683724391	0.116184209394	0.549796512669	0.038052868774	0.147873204996	0.762023088836	0.054580408927	0.140194059545	0.403758980880	0.170531091890	-0.064000733196	0.578883539060	0.150997914655	-0.097718970433	0.465364531170	0.130452427915	-0.128164143756	0.667443572569	0.066490106969	-0.114612322199	0.610270657518	0.357155058023	0.148576135494	0.599910118080	0.237646738752	0.138012820156	0.530723031821	0.290000083328	0.194446227250	0.471790221281	0.357252348053	0.139955303576	0.693568035898	0.388970543492	-0.093969734406	0.611601214220	0.287777310043	-0.090032888032	0.561391233715	0.439993005103	-0.094975887258	0.588804788393	0.355880694589	-0.145796097940	0.639908750852	0.465833327193	0.135836078428	0.776813435453	0.492301881209	-0.085864862471	0.694730630956	0.775748971362	0.167229739571	0.612656276609	0.706255336405	0.222456605732	0.681125957731	0.617586793699	0.134958332038	0.705754664291	0.819905049651	-0.096451826838	0.758736290110	0.666599625524	-0.086537189003	0.641547520741	0.724924316897	-0.146585864613	0.655201794553	0.956070962244	-0.074289696921	0.687058214006	0.937650036708	0.157914563087	0.574130107625	1.444638634052	0.230407356331	0.600172829433	1.435513379680	-0.098480543555	0.544488469989	1.479526491413	0.082679652077	0.665899166905	1.381933815066	0.070543548364	0.723980071683	1.203205432815	0.057252669744	0.463069226607	1.323093777577	0.072829553066	0.547814872843	1.173462680131	-0.275554912938	0.614886568169	0.988423522801	-0.432506219034	0.551324791045	1.139841820139	0.387887736534	0.762422607665	0.990494883105	0.414357020591	
487	3.235792207792	0.480681625664	0.049398261997	0.082903608046	0.646860682570	0.097695280629	0.116182284247	0.549797223245	0.038054156088	0.147871922891	0.762023293240	0.054580555511	0.140192156808	0.400071503328	0.174766919228	-0.063761089282	0.574869130443	0.153002040768	-0.097927862213	0.461014680610	0.133935357659	-0.128144183261	0.662297467984	0.067372596869	-0.115060290534	0.610293700594	0.357152053963	0.148565699797	0.599917506893	0.237645944330	0.138005612436	0.530737121174	0.290005483062	0.194446541924	0.471812358427	0.357259604558	0.139956673858	0.692628316949	0.389436676998	-0.094251573583	0.609368449953	0.289316634493	-0.090139344757	0.561082986345	0.442051514555	-0.094945299628	0.587304152099	0.357665922842	-0.145892474345	0.639937256632	0.465838011143	0.135811974586	0.777092313783	0.492201025979	-0.086285935862	0.694753127963	0.775736597182	0.167245046188	0.612686371282	0.706250266392	0.222459252720	0.681147580559	0.617591877796	0.134960052349	0.705791776483	0.820008797202	-0.096525254042	0.759015669219	0.666799641611	-0.086807801019	0.641690456758	0.725036378226	-0.146731422686	0.655238868384	0.956083769794	-0.074273238318	0.687093706014	0.937641946233	0.157928217722	0.574191271442	1.444645335079	0.230427029554	0.600228742401	1.435507446909	-0.098466095088	0.544549376279	1.479534716188	0.082698861598	0.665958508437	1.381923957951	0.070564250705	0.724006906743	1.203186177422	0.057275064907	0.463123318113	1.323110341134	0.072856234667	0.547844980997	1.173463420261	-0.275539644993	0.614891703184	0.988424935752	-0.432503747491	0.551339662225	1.139854042683	0.387908799350	0.762428042940	0.990495738073	0.414356555521	
